<?xml version="1.0" encoding="UTF-8"?>
<!DOCTYPE svg PUBLIC "-//W3C//DTD SVG 1.1//EN" "http://www.w3.org/Graphics/SVG/1.1/DTD/svg11.dtd">

<svg
    xmlns="http://www.w3.org/2000/svg"
    xml:space="preserve"
    width="701px"
    height="278px"
    version="1.1"
    viewBox="0 0 701 278"
    xmlns:xlink="http://www.w3.org/1999/xlink"
>
    <polygon style="fill:#B60208" points="1,68 62,34 122,0 182,35 242,71 241,140 240,209 180,243 119,278 60,242 0,207 1,138 "/>
    <path style="fill:#F8F7F9" d="M76 83l29 117c3,0 6,1 8,2l67 -46c-1,-1 -1,-2 -1,-4l-37 -4c-2,4 -7,6 -13,6 -8,0 -15,-7 -15,-16 0,-8 7,-16 15,-16 9,0 16,7 16,16l36 4c3,-4 8,-7 14,-7 8,0 16,7 16,16 0,9 -8,16 -16,16 -4,0 -7,-1 -9,-3l-66 46c0,2 1,4 1,6 0,9 -7,16 -16,16 -9,0 -16,-7 -16,-16 0,-5 2,-9 6,-12l-29 -120c-8,-1 -14,-7 -14,-15 0,-9 8,-16 16,-16 8,0 15,5 16,13l54 7c2,-6 8,-10 14,-10 9,0 16,7 16,16 0,9 -7,16 -16,16 -7,0 -13,-5 -15,-12l-55 -7c-1,3 -3,5 -6,7z"/>
    <path style="fill:#181D25" d="M359 155l29 7c-5,13 -12,22 -22,28 -11,7 -24,10 -40,10 -20,0 -36,-6 -49,-16 -13,-11 -19,-25 -19,-44 0,-19 6,-34 19,-45 13,-10 30,-16 51,-16 18,0 33,4 44,13 7,5 12,12 16,21l-30 6c-2,-6 -6,-11 -11,-14 -6,-4 -13,-6 -21,-6 -11,0 -20,3 -27,10 -7,6 -10,16 -10,30 0,14 3,25 10,31 7,6 16,9 27,9 8,0 15,-2 20,-5 6,-4 10,-11 13,-19z"/>
    <polygon style="fill:#181D25" points="413,198 413,81 459,81 485,161 512,81 557,81 557,198 529,198 529,106 500,198 471,198 441,106 441,198 "/>
    <path style="fill:#181D25" d="M580 160l29 -2c2,7 5,13 11,17 5,3 12,5 22,5 9,0 16,-2 21,-5 5,-3 8,-7 8,-11 0,-3 -1,-5 -3,-7 -2,-2 -6,-4 -11,-5 -4,-1 -12,-3 -24,-5 -16,-3 -28,-7 -34,-12 -9,-6 -14,-14 -14,-23 0,-6 2,-12 7,-17 4,-5 10,-9 18,-12 8,-2 18,-4 30,-4 18,0 32,3 42,10 9,6 14,15 15,26l-31 1c-1,-6 -4,-11 -8,-13 -4,-3 -10,-4 -19,-4 -8,0 -15,1 -20,4 -3,2 -5,4 -5,7 0,3 2,5 5,7 3,3 13,5 27,8 15,3 26,6 33,8 7,3 12,7 16,12 4,5 6,11 6,19 0,6 -2,13 -7,19 -5,5 -12,10 -20,13 -9,2 -20,4 -33,4 -19,0 -33,-4 -43,-10 -10,-7 -16,-17 -18,-30z"/>
</svg>
